# xmcd
#
# Track frame offsets:
#	150
#	22209
#	34173
#	47690
#	64376
#	89074
#	107646
#	119686
#	132779
#	150009
#	166162
#	179536
#	194262
#	209741
#	231444
# Disc length: 3250 seconds
# Revision: 1
# Processed by: cddbd v1.5.2PL0 Copyright (c) Steve Scherf et al.
#
# Submitted via: libkcddb 0.31
#
DISCID=da0cb00f
DTITLE=Flat Mountain Girls - Idle Talk and Wicked Deeds
DYEAR=2007
DGENRE=Bluegrass
TTITLE0=Little Black Train
TTITLE1=Sandy Boys
TTITLE2=Close To The Mill
TTITLE3=Poor Orphan Girl
TTITLE4=Lonesome Pine Special
TTITLE5=Forgiveness
TTITLE6=Greasy Coat
TTITLE7=Jealous Hearted Me
TTITLE8=My Epitaph
TTITLE9=Sleepy Eyed John
TTITLE10=Old Yeller Dog
TTITLE11=All My Love Is In Vain
TTITLE12=Leaving Home
TTITLE13=Angel Band
TTITLE14=Big Scioto
EXTD=
EXTT0=
EXTT1=
EXTT2=
EXTT3=
EXTT4=
EXTT5=
EXTT6=
EXTT7=
EXTT8=
EXTT9=
EXTT10=
EXTT11=
EXTT12=
EXTT13=
EXTT14=
PLAYORDER=
